<svg xmlns="http://www.w3.org/2000/svg" width="699.747" height="240"><path d="M263.23 106.048c3.126-2.566 6.876-3.853 11.252-3.853 8.955 0 14.377 4.349 16.252 13.04h40.631c0-14.42-5.367-26.229-16.096-35.417-10.734-9.187-24.33-13.781-40.787-13.781-16.253 0-29.902 4.844-40.944 14.522-11.047 9.684-16.565 21.538-16.565 35.566 0 12.054 3.697 21.784 11.095 29.194 7.394 7.408 18.543 13.485 33.443 18.227.807.257 1.59.51 2.363.76l53.075-18.22c-7.226-4.556-16.898-8.616-29.028-12.179l-11.564-3.26c-6.671-1.972-11.306-4-13.909-6.076-2.607-2.074-3.906-4.987-3.906-8.743 0-3.95 1.562-7.21 4.687-9.78zm128.622-91.983h-37.01v51.986h-19.233v30.342h19.232v36.685l37.01-12.705v-23.98h31.877V66.05h-31.876V14.065zM146.612 66.81c-22.369 0-32.66 15.36-40.111 22.27V70.612H62.298v93.445l45.019 68.58h2.206V156.13c0-19.344.655-44.78 26.441-44.78s26.618 22.895 26.618 41.851v79.436h48.397v-86.862c0-27.683-5.137-47.767-15.412-60.247-10.275-12.476-26.594-18.718-48.956-18.718zM12.384 88.021l42.11 64.15V68.71h-42.11v19.31zm19.262-25.9L56.26 0 0 37.507l31.647 24.615zm512.24 13.389v21.467c-6.121-9.088-11.1-15.566-18.285-19.437-7.19-3.866-16.024-5.802-26.507-5.802-20.633 0-37.668 7.978-51.111 23.934-11.968 14.205-18.595 31.832-19.908 52.856l92.135 87.618c1.459-.59 2.886-1.224 4.25-1.95 7.268-3.865 12.608-10.152 19.426-18.855v8.59l41.906-145.21V75.51h-41.906zm-10.476 109.874c-6.486 7.48-15.11 11.218-25.871 11.218-10.908 0-19.677-3.659-26.312-10.974-6.633-7.316-9.95-16.907-9.95-28.775 0-12.517 3.317-22.679 9.95-30.483 6.635-7.804 15.256-11.705 25.87-11.705 10.465 0 19.09 3.901 25.872 11.705 6.778 7.804 10.17 17.721 10.17 29.75 0 12.034-3.244 21.788-9.73 29.264z" fill="#d65924"/><path d="M316.95 146.086l-53.076 18.22c13.506 4.374 21.944 7.78 25.297 10.205 3.541 2.57 5.313 6.327 5.313 11.263 0 4.742-1.772 8.595-5.313 11.558-3.545 2.964-8.024 4.447-13.439 4.447-6.046 0-10.891-1.58-14.534-4.742-3.648-3.159-4.17-5.852-6.25-12.772h-41.882c1.875 17.982 5.988 29.47 17.034 39.15 11.042 9.683 25.731 14.522 44.069 14.522 17.293 0 31.928-5.381 43.913-16.153 11.979-10.767 17.97-24.053 17.97-39.863 0-12.448-3.647-22.274-10.937-29.49-2.24-2.213-4.965-4.327-8.166-6.345zm74.902 46.312v-72.025l-37.01 12.705v65.594c0 26.372 16.13 38.859 34.59 38.859h35.94v-37.01h-25.398a8.123 8.123 0 0 1-8.122-8.123zm215.299-85.736v101.973l92.596-51.82-92.596-50.153zM12.385 232.637h42.11V152.17l-42.11-64.149v144.616zm49.913 0h45.019l-45.019-68.58v68.58zm481.589 3.591h41.906V78.721l-41.906 145.21v12.297zM427.818 156.45c0 24.179 6.636 44.146 19.912 59.906C461.004 232.122 477.954 240 498.588 240c8.105 0 15.302-1.3 21.623-3.854l-92.135-87.618a126.737 126.737 0 0 0-.258 7.921z" fill="#8a1f75"/></svg>