<svg xmlns="http://www.w3.org/2000/svg" width="1033.913" height="240" viewBox="0 0 1033.913 240"><path d="M524.376 50.703l32.084.2-32.886 106.28H491.69l32.686-106.48zm6.818-34.09c1.003-10.427 10.227-17.846 22.66-16.442 11.029 1.203 17.847 8.823 16.844 17.646-1.203 11.43-10.427 18.448-22.86 17.045-11.03-1.204-17.446-9.225-16.644-18.248z" fill="#00abe4"/><path d="M641.684 133.721c-8.422 0-13.435-5.013-13.435-14.237V75.368h27.07V51.104h-27.07v-26.47h-31.483v26.27h-16.644v24.263h16.644v44.517c0 25.868 14.84 38.902 40.507 38.902 9.625 0 19.25-2.205 25.667-6.818l-8.623-22.057c-3.61 2.606-8.02 4.01-12.633 4.01zm-358.14-86.627c-33.087 0-57.952 23.662-57.952 55.947 0 32.284 24.264 55.746 61.762 55.746 19.451 0 34.691-6.217 44.717-17.646l-16.643-18.048a37 37 0 0 1-27.272 10.427c-16.443 0-28.073-8.422-31.081-21.857h82.215c.201-2.607.602-6.016.803-8.221 0-34.892-24.665-56.348-56.549-56.348zm-26.67 46.321c2.206-14.037 12.433-22.66 26.87-22.66 13.436-.4 25.066 9.426 26.67 22.66h-53.54zm168.041-46.321c-13.435 0-24.664 4.21-32.686 13.034V7.39h-31.482v149.592h30.079V144.55c7.82 9.626 19.651 14.238 34.09 14.238 30.48 0 54.141-21.858 54.141-55.947s-23.461-55.947-54.142-55.746zm-5.213 85.825c-15.842 0-27.673-11.43-27.673-30.079s11.63-30.079 27.472-30.079 27.673 11.43 27.673 30.079c0 18.85-11.631 30.079-27.472 30.079zm311.417 25.868c19.45 0 34.69-6.217 44.717-17.646l-16.644-18.048a37 37 0 0 1-27.271 10.427c-16.644 0-28.074-8.422-31.082-21.857h82.016c.2-2.607.601-6.016.802-8.422 0-34.892-24.665-56.348-56.549-56.348-33.087 0-57.952 23.662-57.952 55.947 0 32.285 24.464 55.947 61.963 55.947zm-3.81-88.031c13.435-.401 25.066 9.425 26.67 22.66h-53.54c2.205-14.038 12.432-22.66 26.87-22.66zm154.004 47.123c-5.815 10.428-14.638 14.84-24.464 14.84-16.042 0-28.475-11.03-28.475-30.08s12.633-30.078 28.475-30.078c10.026 0 18.649 4.812 24.464 15.039l24.464-13.034c-8.02-17.847-25.868-27.673-48.728-27.673-35.292 0-60.559 23.261-60.559 55.947s25.066 55.947 60.56 55.746c22.86 0 40.907-10.026 48.727-27.472l-24.464-13.235zm107.482-70.785c-13.836 0-26.068 4.411-34.49 12.833V7.39h-31.483v149.793h31.483v-53.741c0-20.053 10.828-29.277 26.068-29.277 14.037 0 22.058 8.02 22.058 25.667v57.35h31.482V95.02c0-33.087-19.45-48.127-45.118-47.926zM194.51 16.012l-32.886 100.063L129.34 16.012H99.06l-33.287 99.26-31.884-99.26H0l46.322 141.17h34.891l32.084-95.65 31.082 95.65h35.092l46.322-141.37-31.283.2zm820.353 172.252c-5.213-.2-10.026 2.006-13.234 6.217v-6.016h-6.417v50.933h6.818v-19.25c3.208 4.01 8.02 6.216 13.034 6.016 10.828 0 18.85-7.62 18.85-19.05 0-.602 0-1.203-.201-1.805-.401-9.826-8.823-17.446-18.85-17.045zm12.233 18.85c0 8.02-5.214 13.234-12.433 13.234-7.22 0-12.633-5.213-12.633-13.234v-1.404c.4-6.818 6.216-12.232 13.234-11.831 6.818.401 12.232 6.216 11.832 13.235zm-294.373-19.05h-1.203c-10.026.4-17.847 9.023-17.446 19.05 0 11.029 8.021 19.05 20.053 19.05 5.414.2 10.828-2.006 14.638-6.016l-3.81-4.412a13.472 13.472 0 0 1-10.828 4.612c-7.42 0-12.834-4.411-13.636-11.028h30.48c0-.602 0-1.404.2-2.006 0-11.43-7.62-19.25-18.448-19.25zm-12.232 16.443c.601-5.815 5.214-10.428 11.029-10.829 6.617-.601 12.433 4.211 13.034 10.829h-24.063zm134.954-10.026c-3.409-4.212-8.623-6.417-13.836-6.217-10.829 0-19.05 7.42-19.05 18.047 0 10.628 8.221 18.048 19.05 18.048 5.013.2 10.026-2.005 13.435-5.815v2.807c0 8.623-4.01 12.633-12.834 12.633-5.213.2-10.427-1.604-14.438-4.812l-3.208 5.213c4.211 3.81 11.029 5.615 17.847 5.615 12.834 0 19.45-6.016 19.45-19.25v-32.285h-6.416v6.016zm-13.034 23.862c-7.42 0-12.834-5.013-12.834-12.232 0-7.219 5.414-12.032 12.834-12.032s12.834 4.813 12.834 12.032-5.415 12.232-12.834 12.232zm38.701-23.662v-6.216h-6.617v37.498h6.818v-18.649c0-8.221 4.612-12.633 11.831-12.633h1.604v-6.617c-6.417 0-11.029 2.206-13.636 6.617zm94.65 13.034c0 8.021-4.613 12.433-11.632 12.433-6.416 0-10.026-3.61-10.026-11.03v-20.653h-6.818v21.456c0 11.029 6.417 16.243 16.042 16.243 4.813.2 9.626-2.006 12.634-6.016v5.615h6.416v-37.298h-6.617v19.25zm-56.95-19.651c-11.23 0-19.452 7.82-19.452 19.05 0 10.628 8.623 19.45 19.451 19.45 10.829 0 19.452-8.822 19.452-19.45 0-11.23-8.222-19.05-19.452-19.05zm0 32.485c-7.22 0-12.634-5.214-12.634-13.235v-1.203c.2-6.818 5.816-12.232 12.633-12.032 7.22 0 12.634 5.014 12.634 13.035-.2 8.02-5.415 13.435-12.634 13.435zm-230.004-32.485c-5.214-.2-10.227 2.005-13.436 6.015v-5.614h-6.416v37.498h6.817v-19.25c0-8.222 4.613-12.433 11.832-12.433 6.416 0 10.026 3.409 10.026 10.828v20.655h6.818v-21.457c0-11.029-6.216-16.242-15.641-16.242zm123.123 32.485c-3.61 0-5.815-2.206-5.815-6.216v-20.254h10.628v-5.614h-10.628v-8.222h-6.818v8.222h-6.417v5.614h6.216v20.454c0 7.42 4.211 11.63 11.831 11.63 3.008.201 5.816-.802 8.222-2.606l-2.005-4.813c-1.404 1.203-3.209 1.805-5.214 1.805zm-22.259-32.084h-7.42L772.027 201.9 761.8 188.465h-7.62l14.037 18.248-14.638 19.05h7.62l11.029-14.238 10.828 14.238h7.42l-14.84-19.05 14.037-18.248z" fill="#1f1c19"/></svg>